<?xml version="1.0" standalone="no"?><!DOCTYPE svg PUBLIC "-//W3C//DTD SVG 1.1//EN" "http://www.w3.org/Graphics/SVG/1.1/DTD/svg11.dtd"><svg t="1758889528528" class="icon" viewBox="0 0 1024 1024" version="1.1" xmlns="http://www.w3.org/2000/svg" p-id="6543" xmlns:xlink="http://www.w3.org/1999/xlink" width="200" height="200"><path d="M568.2 184.1c0 16.6-7.2 31.6-18.7 41.9v70.5h187.4c62.1 0 112.4 50.3 112.4 112.4v374.7c0 62.1-50.3 112.4-112.4 112.4H287.2c-62.1 0-112.4-50.3-112.4-112.4V409c0-62.1 50.3-112.4 112.4-112.4h187.4V226c-23.1-20.7-25.1-56.2-4.4-79.4s56.2-25.1 79.4-4.4c11.8 10.7 18.6 25.9 18.6 41.9z m-281 187.4c-20.7 0-37.5 16.8-37.5 37.5v374.7c0 20.7 16.8 37.5 37.5 37.5h449.7c20.7 0 37.5-16.8 37.5-37.5V409c0-20.7-16.8-37.5-37.5-37.5H287.2zM137.3 483.9h-75v224.8h74.9c0.1 0 0.1-224.8 0.1-224.8z m749.4 0h74.9v224.8h-74.9V483.9zM399.6 652.5c31 0 56.2-25.2 56.2-56.2 0-31-25.2-56.2-56.2-56.2s-56.2 25.2-56.2 56.2c0 31.1 25.1 56.2 56.2 56.2z m224.8 0c31 0 56.2-25.2 56.2-56.2 0-31-25.2-56.2-56.2-56.2s-56.2 25.2-56.2 56.2c0 31.1 25.2 56.2 56.2 56.2z" p-id="6544" fill="#1890ff"></path></svg>