<svg width="211.603" height="35.881" viewBox="0 0 211.603 35.881" xmlns="http://www.w3.org/2000/svg"><g id="svgGroup" stroke-linecap="round" fill-rule="evenodd" font-size="9pt" stroke="#1890ff;" stroke-width="0.25mm" fill="#1890ff;" style="stroke:#1890ff;;stroke-width:0.25mm;fill:#1890ff;"><path d="M 16.201 32.416 Q 18.151 32.416 19.876 31.991 Q 21.601 31.566 23.076 30.866 Q 24.551 30.166 25.776 29.241 Q 27.001 28.316 27.901 27.266 Q 28.501 26.566 29.076 26.216 Q 29.651 25.866 30.501 25.866 Q 31.301 25.866 31.751 26.266 Q 32.201 26.666 32.201 27.366 Q 32.201 28.166 31.451 28.966 Q 30.151 30.366 28.326 31.616 Q 26.501 32.866 24.351 33.816 Q 22.201 34.766 19.851 35.316 Q 17.501 35.866 15.151 35.866 Q 11.301 35.866 8.451 35.041 Q 5.601 34.216 3.726 32.741 Q 1.851 31.266 0.926 29.216 Q 0.001 27.166 0.001 24.666 Q 0.001 22.066 0.851 19.516 Q 1.701 16.966 3.251 14.641 Q 4.801 12.316 6.976 10.366 Q 9.151 8.416 11.801 6.966 Q 14.451 5.516 17.526 4.691 Q 20.601 3.866 23.901 3.866 A 20.208 20.208 0 0 1 31.075 4.956 A 11.599 11.599 0 0 1 31.351 5.066 Q 34.251 6.266 35.601 8.016 Q 36.251 8.816 36.251 9.916 Q 36.251 10.966 35.401 11.716 Q 34.551 12.466 33.201 12.466 Q 32.501 12.466 31.801 12.091 Q 31.101 11.716 30.551 11.066 Q 28.901 9.066 26.726 8.191 Q 24.551 7.316 21.651 7.316 Q 18.351 7.316 15.476 8.591 Q 12.601 9.866 10.476 12.041 Q 8.351 14.216 7.101 17.041 Q 5.851 19.866 5.851 22.966 Q 5.851 24.966 6.576 26.691 Q 7.301 28.416 8.626 29.691 Q 9.951 30.966 11.876 31.691 Q 13.801 32.416 16.201 32.416 Z M 45.601 1.916 L 45.601 21.316 Q 47.601 18.166 50.576 16.491 Q 53.551 14.816 57.601 14.816 A 11.306 11.306 0 0 1 63.369 16.051 A 5.676 5.676 0 0 1 64.101 16.566 Q 66.201 18.316 66.201 21.166 Q 66.201 22.716 65.651 24.516 Q 65.101 26.316 64.126 28.166 Q 63.151 30.016 61.751 31.791 Q 60.351 33.566 58.701 35.016 Q 58.151 35.566 57.726 35.716 Q 57.301 35.866 56.801 35.866 Q 56.151 35.866 55.676 35.391 Q 55.201 34.916 55.201 34.416 Q 55.201 34.166 55.301 33.891 Q 55.401 33.616 55.801 33.216 Q 57.001 31.966 57.926 30.541 Q 58.851 29.116 59.476 27.741 Q 60.101 26.366 60.451 25.116 Q 60.801 23.866 60.801 22.866 Q 60.801 20.266 59.476 19.016 Q 58.151 17.766 55.751 17.766 Q 53.851 17.766 52.026 18.616 Q 50.201 19.466 48.801 20.991 Q 47.401 22.516 46.551 24.591 Q 45.701 26.666 45.701 29.116 L 45.701 33.766 Q 45.701 34.616 45.126 35.191 Q 44.551 35.766 43.201 35.766 Q 41.901 35.766 41.326 35.191 Q 40.751 34.616 40.751 33.766 L 40.751 2.066 Q 40.751 1.216 41.326 0.641 Q 41.901 0.066 43.151 0.066 Q 45.601 0.066 45.601 1.916 Z M 123.751 30.966 L 123.751 11.866 Q 123.751 10.066 124.101 8.841 Q 124.451 7.616 125.501 6.791 Q 126.551 5.966 128.426 5.416 Q 130.301 4.866 133.351 4.416 Q 134.751 4.216 136.726 4.066 Q 138.701 3.916 140.351 3.916 Q 143.501 3.916 146.026 4.716 Q 148.551 5.516 150.351 6.991 Q 152.151 8.466 153.101 10.566 Q 154.051 12.666 154.051 15.216 Q 154.051 19.866 152.501 23.666 Q 150.951 27.466 148.126 30.191 Q 145.301 32.916 141.326 34.391 Q 137.351 35.866 132.501 35.866 Q 129.551 35.866 127.801 35.691 Q 126.051 35.516 125.151 34.991 Q 124.251 34.466 124.001 33.491 Q 123.751 32.516 123.751 30.966 Z M 176.701 26.416 L 164.251 28.516 Q 164.251 30.366 165.276 31.441 A 5.078 5.078 0 0 0 168.965 32.516 A 13.867 13.867 0 0 0 169.051 32.516 Q 171.551 32.516 173.676 31.916 Q 175.801 31.316 177.751 30.366 Q 178.651 29.916 179.151 29.916 Q 180.301 29.916 180.301 31.316 Q 180.301 32.166 179.251 32.716 Q 173.451 35.866 167.601 35.866 Q 165.251 35.866 163.576 35.366 Q 161.901 34.866 160.851 33.991 Q 159.801 33.116 159.301 31.916 Q 158.801 30.716 158.801 29.316 Q 158.801 26.716 160.201 24.116 Q 161.601 21.516 163.976 19.466 Q 166.351 17.416 169.476 16.116 Q 172.601 14.816 176.101 14.816 A 12.481 12.481 0 0 1 181.505 15.774 A 5.405 5.405 0 0 1 182.326 16.266 Q 184.301 17.716 184.301 19.816 Q 184.301 22.266 182.576 23.991 A 9.643 9.643 0 0 1 177.761 26.212 A 22.524 22.524 0 0 1 176.701 26.416 Z M 192.901 15.066 Q 193.651 15.066 194.201 15.491 Q 194.751 15.916 194.751 16.616 Q 194.751 16.716 194.726 16.816 Q 194.701 16.916 194.701 17.016 A 115.941 115.941 0 0 0 193.44 23.062 A 55.68 55.68 0 0 0 193.326 23.741 Q 192.901 26.366 192.901 28.116 Q 192.901 30.016 193.951 31.041 A 4.118 4.118 0 0 0 196.951 32.066 Q 198.901 32.066 200.551 31.366 Q 202.201 30.666 203.401 29.466 Q 204.601 28.266 205.251 26.641 Q 205.901 25.016 205.901 23.166 Q 205.901 22.016 205.676 20.866 Q 205.451 19.716 204.901 18.266 Q 204.651 17.516 204.651 17.066 Q 204.651 16.266 205.476 15.541 Q 206.301 14.816 207.601 14.816 Q 209.551 14.816 210.551 16.516 Q 211.601 18.266 211.601 20.616 Q 211.601 23.166 210.376 25.841 Q 209.151 28.516 207.026 30.691 Q 204.901 32.866 201.976 34.266 Q 199.051 35.666 195.601 35.666 A 10.51 10.51 0 0 1 190.263 34.55 A 4.922 4.922 0 0 1 189.676 34.141 Q 187.801 32.616 187.801 29.766 Q 187.801 27.316 188.551 23.866 Q 189.301 20.416 190.751 16.516 Q 191.051 15.766 191.526 15.416 Q 192.001 15.066 192.901 15.066 Z M 104.801 26.416 L 104.801 18.616 L 102.551 18.616 Q 101.101 18.616 101.101 17.016 Q 101.101 15.466 102.551 15.466 L 104.801 15.466 L 104.801 11.016 Q 104.801 10.166 105.376 9.591 Q 105.951 9.016 107.251 9.016 Q 108.601 9.016 109.176 9.591 Q 109.751 10.166 109.751 11.016 L 109.751 15.466 L 116.101 15.466 Q 117.551 15.466 117.551 17.016 Q 117.551 18.616 116.101 18.616 L 109.751 18.616 L 109.751 27.816 A 4.959 4.959 0 0 0 111.213 31.969 A 3.507 3.507 0 0 0 113.401 32.616 Q 114.701 32.616 115.576 32.416 Q 116.451 32.216 117.301 31.816 Q 117.701 31.616 118.001 31.616 Q 118.551 31.616 118.901 31.966 Q 119.251 32.316 119.251 32.866 Q 119.251 33.716 118.401 34.216 Q 117.051 34.966 115.301 35.416 Q 113.551 35.866 111.901 35.866 Q 110.251 35.866 108.851 35.416 Q 107.451 34.966 106.451 34.166 Q 105.451 33.366 104.901 32.266 Q 104.351 31.166 104.351 29.866 Q 104.351 28.716 104.576 28.041 Q 104.801 27.366 104.801 26.416 Z M 96.051 24.216 L 96.051 33.666 Q 96.051 34.516 95.476 35.091 Q 94.901 35.666 93.601 35.666 Q 92.251 35.666 91.676 35.091 Q 91.101 34.516 91.101 33.666 L 91.101 30.316 Q 88.851 32.866 85.801 34.366 Q 82.751 35.866 79.301 35.866 A 11.788 11.788 0 0 1 73.693 34.761 A 5.379 5.379 0 0 1 72.726 34.091 Q 70.701 32.316 70.701 29.266 Q 70.701 26.666 72.101 24.091 Q 73.501 21.516 75.901 19.441 Q 78.301 17.366 81.426 16.091 Q 84.551 14.816 88.001 14.816 A 12.091 12.091 0 0 1 93.617 15.896 A 5.508 5.508 0 0 1 94.551 16.516 Q 96.601 18.216 96.601 20.966 Q 96.601 21.816 96.326 22.666 Q 96.051 23.516 96.051 24.216 Z M 128.951 12.016 L 128.951 30.216 Q 128.951 30.966 129.101 31.416 Q 129.251 31.866 129.776 32.116 Q 130.301 32.366 131.301 32.466 Q 132.301 32.566 134.051 32.566 Q 137.251 32.566 139.901 31.666 Q 142.551 30.766 144.451 28.891 Q 146.351 27.016 147.426 24.066 Q 148.501 21.116 148.501 17.016 A 10.97 10.97 0 0 0 146.867 10.6 A 6.436 6.436 0 0 0 145.876 9.491 A 10.586 10.586 0 0 0 139.471 7.223 A 22.221 22.221 0 0 0 137.851 7.166 Q 137.051 7.166 136.351 7.216 Q 135.651 7.266 135.051 7.366 Q 133.151 7.616 131.976 7.916 Q 130.801 8.216 130.126 8.741 Q 129.451 9.266 129.201 10.041 Q 128.951 10.816 128.951 12.016 Z M 86.251 17.766 Q 84.051 17.766 82.201 18.591 Q 80.351 19.416 78.976 20.766 Q 77.601 22.116 76.826 23.866 Q 76.051 25.616 76.051 27.466 Q 76.051 29.816 77.376 31.091 Q 78.701 32.366 81.151 32.366 Q 83.251 32.366 85.101 31.541 Q 86.951 30.716 88.326 29.366 Q 89.701 28.016 90.526 26.266 Q 91.351 24.516 91.351 22.616 Q 91.351 20.416 89.976 19.091 Q 88.601 17.766 86.251 17.766 Z M 164.301 25.516 L 175.201 23.766 A 7.094 7.094 0 0 0 178.365 22.714 A 1.76 1.76 0 0 0 178.476 22.616 Q 179.251 21.866 179.251 20.716 Q 179.251 19.516 178.051 18.591 Q 176.851 17.666 174.451 17.666 Q 172.701 17.666 171.001 18.316 Q 169.301 18.966 167.926 20.066 Q 166.551 21.166 165.576 22.591 Q 164.601 24.016 164.301 25.516 Z"/></g></svg>